<svg width="156" height="45" viewBox="0 0 156 45" fill="none" xmlns="http://www.w3.org/2000/svg">
<path d="M6.38908 13.3587C7.30512 31.993 18.2997 37.9936 22.3654 39.5788C26.4309 37.9956 37.4143 31.9952 38.3298 13.3587C35.3741 11.6795 29.0401 8.74533 22.3583 5.96436C15.6717 8.74729 9.34251 11.6812 6.38672 13.3587H6.38908ZM23.4197 13.0689L25.8309 16.8234L30.441 17.7802C30.8656 17.8676 31.2071 18.1574 31.3409 18.5388C31.4747 18.9202 31.3824 19.34 31.094 19.6404L27.9721 22.9177L28.4128 27.2625C28.452 27.6631 28.2628 28.0509 27.9098 28.2875C27.6952 28.4302 27.4414 28.5048 27.1853 28.5048C27.0215 28.5048 26.8553 28.475 26.6984 28.4111L22.3582 26.6829L18.0181 28.4111C17.6166 28.5709 17.1597 28.5219 16.8067 28.2875C16.4536 28.0509 16.2644 27.661 16.3037 27.2625L16.7444 22.9177L13.6225 19.6404C13.3364 19.34 13.2418 18.9202 13.3756 18.5388C13.5117 18.1574 13.8532 17.8697 14.2754 17.7802L18.8856 16.8234L21.2968 13.0689C21.7421 12.3785 22.9696 12.3785 23.4149 13.0689H23.4197Z" fill="#FD7014"/>
<path d="M22.5597 0.0933401C22.2447 -0.0311134 21.8907 -0.0311134 21.578 0.0933401C0 8.74196 0 10.9209 0 11.638C0 39.9479 21.571 44.9219 21.7893 44.9705C21.8813 44.9916 21.9755 45 22.0698 45C22.1663 45 22.2583 44.9895 22.3503 44.9705C22.5687 44.9241 44.1396 39.948 44.1396 11.638C44.1396 10.9208 44.1401 8.7418 22.5597 0.0933401ZM22.5183 41.5064C22.3758 41.557 22.2264 41.5823 22.0746 41.5823C21.9252 41.5823 21.7735 41.557 21.6309 41.5064C17.6123 40.0784 4.43924 33.7839 3.67591 12.7217C3.66212 12.3294 3.86902 11.9602 4.22536 11.7451C7.46919 9.78761 15.4881 6.20796 21.5642 3.70831C21.8837 3.57752 22.2493 3.57752 22.5665 3.70831C28.6402 6.20791 36.6566 9.78761 39.903 11.7451C40.2616 11.9603 40.4685 12.3315 40.4547 12.7217C39.6915 33.786 26.53 40.0781 22.5138 41.5064H22.5183Z" fill="#FD7014"/>
<path d="M64.9102 22.3911H59.2148V29.1528H64.0195C64.5039 29.1528 64.8594 28.981 65.0859 28.6372C65.3203 28.2856 65.4766 27.8481 65.5547 27.3247L65.7422 26.1997H67.4062L67.2305 30.6177H53.168V29.3403H54.1758C54.5898 29.3403 54.8984 29.2466 55.1016 29.0591C55.3047 28.8638 55.4062 28.481 55.4062 27.9106V16.3091C55.4062 15.6997 55.3047 15.2896 55.1016 15.0786C54.8984 14.8599 54.5898 14.7505 54.1758 14.7505H53.168V13.4849H66.4922L66.5859 17.9028H64.9102L64.793 16.7661C64.7305 16.1802 64.582 15.731 64.3477 15.4185C64.1133 15.106 63.75 14.9497 63.2578 14.9497H59.2148V20.9497H64.9102V22.3911ZM75.0234 22.813V25.3325H68.7773V22.813H75.0234ZM85.8281 28.9419C86.4141 28.9419 86.9336 28.8755 87.3867 28.7427C87.8477 28.6021 88.2578 28.4224 88.6172 28.2036C88.9766 27.9849 89.2891 27.7388 89.5547 27.4653C89.8281 27.1919 90.0664 26.9224 90.2695 26.6567C90.3945 26.7505 90.4922 26.895 90.5625 27.0903C90.6406 27.2856 90.6797 27.4849 90.6797 27.688C90.6797 28.0239 90.5898 28.3794 90.4102 28.7544C90.2305 29.1216 89.9297 29.4614 89.5078 29.7739C89.0859 30.0864 88.5273 30.3442 87.832 30.5474C87.1367 30.7505 86.2773 30.8521 85.2539 30.8521C83.8633 30.8521 82.6484 30.6411 81.6094 30.2192C80.5703 29.7974 79.707 29.1997 79.0195 28.4263C78.332 27.6528 77.8164 26.7231 77.4727 25.6372C77.1289 24.5513 76.957 23.3481 76.957 22.0278C76.957 20.731 77.1328 19.5435 77.4844 18.4653C77.8438 17.3872 78.3672 16.4614 79.0547 15.688C79.75 14.9146 80.6133 14.313 81.6445 13.8833C82.6758 13.4536 83.8711 13.2388 85.2305 13.2388C86.1523 13.2388 86.9531 13.313 87.6328 13.4614C88.3203 13.6021 88.8906 13.7974 89.3438 14.0474C90.25 14.5552 90.7031 15.2153 90.7031 16.0278C90.7031 16.6763 90.4258 17.188 89.8711 17.563C89.3242 17.9302 88.6016 18.1138 87.7031 18.1138C87.7031 17.5435 87.6133 17.0044 87.4336 16.4966C87.2617 15.9888 86.9844 15.5747 86.6016 15.2544C86.2188 14.9341 85.707 14.7739 85.0664 14.7739C83.5977 14.7739 82.5391 15.4028 81.8906 16.6606C81.5781 17.2778 81.3477 18.0396 81.1992 18.9458C81.0586 19.8442 80.9883 20.8716 80.9883 22.0278C80.9883 23.1841 81.0742 24.1958 81.2461 25.063C81.418 25.9224 81.6953 26.6411 82.0781 27.2192C82.8438 28.3677 84.0938 28.9419 85.8281 28.9419ZM109.23 22.0278C109.23 23.3481 109.055 24.5513 108.703 25.6372C108.352 26.7231 107.828 27.6528 107.133 28.4263C106.445 29.1997 105.598 29.7974 104.59 30.2192C103.582 30.6411 102.426 30.8521 101.121 30.8521C99.7539 30.8521 98.5586 30.6411 97.5352 30.2192C96.5195 29.7974 95.6758 29.1997 95.0039 28.4263C94.332 27.6528 93.8281 26.7231 93.4922 25.6372C93.1562 24.5435 92.9883 23.3325 92.9883 22.0044C92.9883 20.6763 93.1562 19.4731 93.4922 18.395C93.8281 17.3091 94.3359 16.3833 95.0156 15.6177C95.6875 14.8521 96.5312 14.2622 97.5469 13.8481C98.5703 13.4263 99.7695 13.2153 101.145 13.2153C102.441 13.2153 103.59 13.4263 104.59 13.8481C105.598 14.2622 106.445 14.8521 107.133 15.6177C108.531 17.1958 109.23 19.3325 109.23 22.0278ZM97.0195 22.0278C97.0195 23.1763 97.0938 24.1997 97.2422 25.0981C97.3906 25.9888 97.6289 26.7466 97.957 27.3716C98.2852 27.9888 98.707 28.4653 99.2227 28.8013C99.7461 29.1294 100.379 29.2935 101.121 29.2935C101.871 29.2935 102.504 29.1294 103.02 28.8013C103.543 28.4653 103.965 27.9888 104.285 27.3716C104.605 26.7466 104.836 25.9888 104.977 25.0981C105.125 24.1997 105.199 23.1763 105.199 22.0278C105.199 20.8794 105.125 19.856 104.977 18.9575C104.836 18.0513 104.605 17.2896 104.285 16.6724C103.965 16.0474 103.547 15.5747 103.031 15.2544C102.516 14.9341 101.887 14.7739 101.145 14.7739C99.6914 14.7739 98.6289 15.4067 97.957 16.6724C97.6289 17.2896 97.3906 18.0513 97.2422 18.9575C97.0938 19.856 97.0195 20.8794 97.0195 22.0278ZM132.727 29.3403V30.6177H125.051V29.3403H125.285C125.816 29.3403 126.199 29.2583 126.434 29.0942C126.676 28.9302 126.797 28.5669 126.797 28.0044V15.8521L121.957 30.6177H120.328L115.254 15.8521V27.7817C115.254 28.438 115.402 28.8638 115.699 29.0591C115.996 29.2466 116.441 29.3403 117.035 29.3403H117.176V30.6177H111.223V29.3403H112.23C112.645 29.3403 112.953 29.2466 113.156 29.0591C113.359 28.8638 113.461 28.481 113.461 27.9106V16.2153C113.461 15.645 113.355 15.2583 113.145 15.0552C112.941 14.8521 112.637 14.7505 112.23 14.7505H111.223V13.4849H118.137L122.121 25.0747L125.941 13.4849H132.727V14.7505H131.719C131.312 14.7505 131.008 14.8599 130.805 15.0786C130.602 15.2896 130.5 15.6997 130.5 16.3091V27.7817C130.5 28.3911 130.602 28.8052 130.805 29.0239C131.008 29.2349 131.312 29.3403 131.719 29.3403H132.727ZM155.578 29.3403V30.6177H147.902V29.3403H148.137C148.668 29.3403 149.051 29.2583 149.285 29.0942C149.527 28.9302 149.648 28.5669 149.648 28.0044V15.8521L144.809 30.6177H143.18L138.105 15.8521V27.7817C138.105 28.438 138.254 28.8638 138.551 29.0591C138.848 29.2466 139.293 29.3403 139.887 29.3403H140.027V30.6177H134.074V29.3403H135.082C135.496 29.3403 135.805 29.2466 136.008 29.0591C136.211 28.8638 136.312 28.481 136.312 27.9106V16.2153C136.312 15.645 136.207 15.2583 135.996 15.0552C135.793 14.8521 135.488 14.7505 135.082 14.7505H134.074V13.4849H140.988L144.973 25.0747L148.793 13.4849H155.578V14.7505H154.57C154.164 14.7505 153.859 14.8599 153.656 15.0786C153.453 15.2896 153.352 15.6997 153.352 16.3091V27.7817C153.352 28.3911 153.453 28.8052 153.656 29.0239C153.859 29.2349 154.164 29.3403 154.57 29.3403H155.578Z" fill="white"/>
</svg>
